<svg width="500" height="500" viewBox="0 0 500 500" fill="none" xmlns="http://www.w3.org/2000/svg">
<path d="M329 342.556H302.556V369H329V342.556Z" fill="#FFF000"/>
<path d="M302.556 342.556H276.111V369H302.556V342.556Z" fill="#FFF000"/>
<path d="M223.222 342.556H196.778V369H223.222V342.556Z" fill="#FFF000"/>
<path d="M196.778 342.556H170.333V369H196.778V342.556Z" fill="#FFF000"/>
<path d="M302.556 316.111H276.111V342.556H302.556V316.111Z" fill="#FFF000"/>
<path d="M223.222 316.111H196.778V342.556H223.222V316.111Z" fill="#FFF000"/>
<path d="M408.333 289.667H381.889V316.111H408.333V289.667Z" fill="#00E6A0"/>
<path d="M329 289.667H302.556V316.111H329V289.667Z" fill="#FFF000"/>
<path d="M302.556 289.667H276.111V316.111H302.556V289.667Z" fill="#FFF000"/>
<path d="M276.111 289.667H249.667V316.111H276.111V289.667Z" fill="#FFF000"/>
<path d="M249.667 289.667H223.222V316.111H249.667V289.667Z" fill="#FFF000"/>
<path d="M223.222 289.667H196.778V316.111H223.222V289.667Z" fill="#FFF000"/>
<path d="M196.778 289.667H170.333V316.111H196.778V289.667Z" fill="#FFF000"/>
<path d="M117.444 289.667H91V316.111H117.444V289.667Z" fill="#00E6A0"/>
<path d="M408.333 263.222H381.889V289.667H408.333V263.222Z" fill="#00E6A0"/>
<path d="M355.444 263.222H329V289.667H355.444V263.222Z" fill="#FF1455"/>
<path d="M329 263.222H302.556V289.667H329V263.222Z" fill="#FF1455"/>
<path d="M302.556 263.222H276.111V289.667H302.556V263.222Z" fill="#FF1455"/>
<path d="M276.111 263.222H249.667V289.667H276.111V263.222Z" fill="#FF1455"/>
<path d="M249.667 263.222H223.222V289.667H249.667V263.222Z" fill="#FF1455"/>
<path d="M223.222 263.222H196.778V289.667H223.222V263.222Z" fill="#FF1455"/>
<path d="M196.778 263.222H170.333V289.667H196.778V263.222Z" fill="#FF1455"/>
<path d="M170.333 263.222H143.889V289.667H170.333V263.222Z" fill="#FF1455"/>
<path d="M117.444 263.222H91V289.667H117.444V263.222Z" fill="#00E6A0"/>
<path d="M408.333 236.778H381.889V263.222H408.333V236.778Z" fill="#00E6A0"/>
<path d="M381.889 236.778H355.444V263.222H381.889V236.778Z" fill="#00E6A0"/>
<path d="M355.444 236.778H329V263.222H355.444V236.778Z" fill="#FF1455"/>
<path d="M329 236.778H302.556V263.222H329V236.778Z" fill="#FF1455"/>
<path d="M276.111 236.778H249.667V263.222H276.111V236.778Z" fill="#FF1455"/>
<path d="M249.667 236.778H223.222V263.222H249.667V236.778Z" fill="#FF1455"/>
<path d="M196.778 236.778H170.333V263.222H196.778V236.778Z" fill="#FF1455"/>
<path d="M170.333 236.778H143.889V263.222H170.333V236.778Z" fill="#FF1455"/>
<path d="M143.889 236.778H117.444V263.222H143.889V236.778Z" fill="#00E6A0"/>
<path d="M117.444 236.778H91V263.222H117.444V236.778Z" fill="#00E6A0"/>
<path d="M381.889 210.333H355.444V236.778H381.889V210.333Z" fill="#00E6A0"/>
<path d="M355.444 210.333H329V236.778H355.444V210.333Z" fill="#FF1455"/>
<path d="M329 210.333H302.556V236.778H329V210.333Z" fill="#FF1455"/>
<path d="M302.556 210.333H276.111V236.778H302.556V210.333Z" fill="#FF1455"/>
<path d="M276.111 210.333H249.667V236.778H276.111V210.333Z" fill="#FF1455"/>
<path d="M249.667 210.333H223.222V236.778H249.667V210.333Z" fill="#FF1455"/>
<path d="M196.778 210.333H170.333V236.778H196.778V210.333Z" fill="#FF1455"/>
<path d="M170.333 210.333H143.889V236.778H170.333V210.333Z" fill="#FF1455"/>
<path d="M143.889 210.333H117.444V236.778H143.889V210.333Z" fill="#00E6A0"/>
<path d="M355.444 183.889H329V210.333H355.444V183.889Z" fill="#00E6A0"/>
<path d="M329 183.889H302.556V210.333H329V183.889Z" fill="#00E6A0"/>
<path d="M302.556 183.889H276.111V210.333H302.556V183.889Z" fill="#00E6A0"/>
<path d="M276.111 183.889H249.667V210.333H276.111V183.889Z" fill="#00E6A0"/>
<path d="M249.667 183.889H223.222V210.333H249.667V183.889Z" fill="#00E6A0"/>
<path d="M223.222 183.889H196.778V210.333H223.222V183.889Z" fill="#00E6A0"/>
<path d="M196.778 183.889H170.333V210.333H196.778V183.889Z" fill="#00E6A0"/>
<path d="M170.333 183.889H143.889V210.333H170.333V183.889Z" fill="#00E6A0"/>
<path d="M329 157.444H302.556V183.889H329V157.444Z" fill="#00E6A0"/>
<path d="M196.778 157.444H170.333V183.889H196.778V157.444Z" fill="#00E6A0"/>
<path d="M329 131H302.556V157.444H329V131Z" fill="#00E6A0"/>
<path d="M302.556 131H276.111V157.444H302.556V131Z" fill="#00E6A0"/>
<path d="M223.222 131H196.778V157.444H223.222V131Z" fill="#00E6A0"/>
<path d="M196.778 131H170.333V157.444H196.778V131Z" fill="#00E6A0"/>
</svg>
