<svg width="500" height="500" viewBox="0 0 500 500" fill="none" xmlns="http://www.w3.org/2000/svg">
<path d="M421.857 335.714H387.571V370H421.857V335.714Z" fill="#FF1455"/>
<path d="M387.571 335.714H353.286V370H387.571V335.714Z" fill="#FF1455"/>
<path d="M353.286 335.714H319V370H353.286V335.714Z" fill="#FFF000"/>
<path d="M319 335.714H284.714V370H319V335.714Z" fill="#FFF000"/>
<path d="M216.143 335.714H181.857V370H216.143V335.714Z" fill="#FFF000"/>
<path d="M181.857 335.714H147.571V370H181.857V335.714Z" fill="#FFF000"/>
<path d="M147.571 335.714H113.286V370H147.571V335.714Z" fill="#FF1455"/>
<path d="M113.286 335.714H79V370H113.286V335.714Z" fill="#FF1455"/>
<path d="M387.571 301.429H353.286V335.714H387.571V301.429Z" fill="#FF1455"/>
<path d="M353.286 301.429H319V335.714H353.286V301.429Z" fill="#FFF000"/>
<path d="M319 301.429H284.714V335.714H319V301.429Z" fill="#FFF000"/>
<path d="M284.714 301.429H250.428V335.714H284.714V301.429Z" fill="#FF1455"/>
<path d="M250.428 301.429H216.143V335.714H250.428V301.429Z" fill="#FF1455"/>
<path d="M216.143 301.429H181.857V335.714H216.143V301.429Z" fill="#FFF000"/>
<path d="M181.857 301.429H147.571V335.714H181.857V301.429Z" fill="#FFF000"/>
<path d="M147.571 301.429H113.286V335.714H147.571V301.429Z" fill="#FF1455"/>
<path d="M387.571 267.143H353.286V301.429H387.571V267.143Z" fill="#0096FF"/>
<path d="M353.286 267.143H319V301.429H353.286V267.143Z" fill="#FFF000"/>
<path d="M181.857 267.143H147.571V301.429H181.857V267.143Z" fill="#FFF000"/>
<path d="M147.571 267.143H113.286V301.429H147.571V267.143Z" fill="#0096FF"/>
<path d="M421.857 232.857H387.571V267.143H421.857V232.857Z" fill="#0096FF"/>
<path d="M387.571 232.857H353.286V267.143H387.571V232.857Z" fill="#0096FF"/>
<path d="M353.286 232.857H319V267.143H353.286V232.857Z" fill="#FFF000"/>
<path d="M319 232.857H284.714V267.143H319V232.857Z" fill="#FFF000"/>
<path d="M284.714 232.857H250.428V267.143H284.714V232.857Z" fill="#FF1455"/>
<path d="M250.428 232.857H216.143V267.143H250.428V232.857Z" fill="#FF1455"/>
<path d="M216.143 232.857H181.857V267.143H216.143V232.857Z" fill="#FFF000"/>
<path d="M181.857 232.857H147.571V267.143H181.857V232.857Z" fill="#FFF000"/>
<path d="M147.571 232.857H113.286V267.143H147.571V232.857Z" fill="#0096FF"/>
<path d="M113.286 232.857H79V267.143H113.286V232.857Z" fill="#0096FF"/>
<path d="M421.857 198.571H387.571V232.857H421.857V198.571Z" fill="#0096FF"/>
<path d="M387.571 198.571H353.286V232.857H387.571V198.571Z" fill="#0096FF"/>
<path d="M353.286 198.571H319V232.857H353.286V198.571Z" fill="#FFF000"/>
<path d="M250.428 198.571H216.143V232.857H250.428V198.571Z" fill="#FF1455"/>
<path d="M181.857 198.571H147.571V232.857H181.857V198.571Z" fill="#FFF000"/>
<path d="M147.571 198.571H113.286V232.857H147.571V198.571Z" fill="#0096FF"/>
<path d="M113.286 198.571H79V232.857H113.286V198.571Z" fill="#0096FF"/>
<path d="M421.857 164.286H387.571V198.571H421.857V164.286Z" fill="#0096FF"/>
<path d="M353.286 164.286H319V198.571H353.286V164.286Z" fill="#FFF000"/>
<path d="M319 164.286H284.714V198.571H319V164.286Z" fill="#FFF000"/>
<path d="M284.714 164.286H250.428V198.571H284.714V164.286Z" fill="#FF1455"/>
<path d="M250.428 164.286H216.143V198.571H250.428V164.286Z" fill="#FF1455"/>
<path d="M216.143 164.286H181.857V198.571H216.143V164.286Z" fill="#FFF000"/>
<path d="M181.857 164.286H147.571V198.571H181.857V164.286Z" fill="#FFF000"/>
<path d="M113.286 164.286H79V198.571H113.286V164.286Z" fill="#0096FF"/>
<path d="M284.714 130H250.428V164.286H284.714V130Z" fill="#FF1455"/>
<path d="M250.428 130H216.143V164.286H250.428V130Z" fill="#FF1455"/>
</svg>
