<svg width="314" height="209" viewBox="0 0 314 209" fill="none" xmlns="http://www.w3.org/2000/svg">
<path d="M250.8 188.1H229.9V209H250.8V188.1Z" fill="#00E6A0"/>
<path d="M83.6 188.1H62.7V209H83.6V188.1Z" fill="#00E6A0"/>
<path d="M271.7 167.2H250.8V188.1H271.7V167.2Z" fill="#FFF000"/>
<path d="M62.7 167.2H41.8V188.1H62.7V167.2Z" fill="#FFF000"/>
<path d="M271.7 146.3H250.8V167.2H271.7V146.3Z" fill="#FFF000"/>
<path d="M250.8 146.3H229.9V167.2H250.8V146.3Z" fill="#00E6A0"/>
<path d="M229.9 146.3H209V167.2H229.9V146.3Z" fill="#00E6A0"/>
<path d="M209 146.3H188.1V167.2H209V146.3Z" fill="#00E6A0"/>
<path d="M188.1 146.3H167.2V167.2H188.1V146.3Z" fill="#00E6A0"/>
<path d="M167.2 146.3H146.3V167.2H167.2V146.3Z" fill="#00E6A0"/>
<path d="M146.3 146.3H125.4V167.2H146.3V146.3Z" fill="#00E6A0"/>
<path d="M125.4 146.3H104.5V167.2H125.4V146.3Z" fill="#00E6A0"/>
<path d="M104.5 146.3H83.6V167.2H104.5V146.3Z" fill="#00E6A0"/>
<path d="M83.6 146.3H62.7V167.2H83.6V146.3Z" fill="#00E6A0"/>
<path d="M62.7 146.3H41.8V167.2H62.7V146.3Z" fill="#FFF000"/>
<path d="M271.7 125.4H250.8V146.3H271.7V125.4Z" fill="#FFF000"/>
<path d="M250.8 125.4H229.9V146.3H250.8V125.4Z" fill="#00E6A0"/>
<path d="M229.9 125.4H209V146.3H229.9V125.4Z" fill="#00E6A0"/>
<path d="M104.5 125.4H83.6V146.3H104.5V125.4Z" fill="#00E6A0"/>
<path d="M83.6 125.4H62.7V146.3H83.6V125.4Z" fill="#00E6A0"/>
<path d="M62.7 125.4H41.8V146.3H62.7V125.4Z" fill="#FFF000"/>
<path d="M313.5 104.5H292.6V125.4H313.5V104.5Z" fill="#FFF000"/>
<path d="M292.6 104.5H271.7V125.4H292.6V104.5Z" fill="#FFF000"/>
<path d="M271.7 104.5H250.8V125.4H271.7V104.5Z" fill="#FFF000"/>
<path d="M250.8 104.5H229.9V125.4H250.8V104.5Z" fill="#0096FF"/>
<path d="M229.9 104.5H209V125.4H229.9V104.5Z" fill="#0096FF"/>
<path d="M188.1 104.5H167.2V125.4H188.1V104.5Z" fill="#FFF000"/>
<path d="M167.2 104.5H146.3V125.4H167.2V104.5Z" fill="#FFF000"/>
<path d="M146.3 104.5H125.4V125.4H146.3V104.5Z" fill="#FFF000"/>
<path d="M104.5 104.5H83.6V125.4H104.5V104.5Z" fill="#0096FF"/>
<path d="M83.6 104.5H62.7V125.4H83.6V104.5Z" fill="#0096FF"/>
<path d="M62.7 104.5H41.8V125.4H62.7V104.5Z" fill="#FFF000"/>
<path d="M41.8 104.5H20.9V125.4H41.8V104.5Z" fill="#FFF000"/>
<path d="M20.9 104.5H0V125.4H20.9V104.5Z" fill="#FFF000"/>
<path d="M292.6 83.6H271.7V104.5H292.6V83.6Z" fill="#FFF000"/>
<path d="M271.7 83.6H250.8V104.5H271.7V83.6Z" fill="#FFF000"/>
<path d="M250.8 83.6H229.9V104.5H250.8V83.6Z" fill="#0096FF"/>
<path d="M229.9 83.6H209V104.5H229.9V83.6Z" fill="#FFF000"/>
<path d="M209 83.6H188.1V104.5H209V83.6Z" fill="#FFF000"/>
<path d="M188.1 83.6H167.2V104.5H188.1V83.6Z" fill="#FFF000"/>
<path d="M167.2 83.6H146.3V104.5H167.2V83.6Z" fill="#FFF000"/>
<path d="M146.3 83.6H125.4V104.5H146.3V83.6Z" fill="#FFF000"/>
<path d="M125.4 83.6H104.5V104.5H125.4V83.6Z" fill="#FFF000"/>
<path d="M104.5 83.6H83.6V104.5H104.5V83.6Z" fill="#FFF000"/>
<path d="M83.6 83.6H62.7V104.5H83.6V83.6Z" fill="#0096FF"/>
<path d="M62.7 83.6H41.8V104.5H62.7V83.6Z" fill="#FFF000"/>
<path d="M41.8 83.6H20.9V104.5H41.8V83.6Z" fill="#FFF000"/>
<path d="M271.7 62.7H250.8V83.6H271.7V62.7Z" fill="#FFF000"/>
<path d="M250.8 62.7H229.9V83.6H250.8V62.7Z" fill="#0096FF"/>
<path d="M229.9 62.7H209V83.6H229.9V62.7Z" fill="#FFF000"/>
<path d="M188.1 62.7H167.2V83.6H188.1V62.7Z" fill="#FFF000"/>
<path d="M167.2 62.7H146.3V83.6H167.2V62.7Z" fill="#FFF000"/>
<path d="M146.3 62.7H125.4V83.6H146.3V62.7Z" fill="#FFF000"/>
<path d="M104.5 62.7H83.6V83.6H104.5V62.7Z" fill="#FFF000"/>
<path d="M83.6 62.7H62.7V83.6H83.6V62.7Z" fill="#0096FF"/>
<path d="M62.7 62.7H41.8V83.6H62.7V62.7Z" fill="#FFF000"/>
<path d="M250.8 41.8H229.9V62.7H250.8V41.8Z" fill="#0096FF"/>
<path d="M229.9 41.8H209V62.7H229.9V41.8Z" fill="#0096FF"/>
<path d="M209 41.8H188.1V62.7H209V41.8Z" fill="#0096FF"/>
<path d="M188.1 41.8H167.2V62.7H188.1V41.8Z" fill="#FFF000"/>
<path d="M167.2 41.8H146.3V62.7H167.2V41.8Z" fill="#FFF000"/>
<path d="M146.3 41.8H125.4V62.7H146.3V41.8Z" fill="#FFF000"/>
<path d="M125.4 41.8H104.5V62.7H125.4V41.8Z" fill="#0096FF"/>
<path d="M104.5 41.8H83.6V62.7H104.5V41.8Z" fill="#0096FF"/>
<path d="M83.6 41.8H62.7V62.7H83.6V41.8Z" fill="#0096FF"/>
<path d="M250.8 20.9H229.9V41.8H250.8V20.9Z" fill="#00E6A0"/>
<path d="M229.9 20.9H209V41.8H229.9V20.9Z" fill="#00E6A0"/>
<path d="M104.5 20.9H83.6V41.8H104.5V20.9Z" fill="#00E6A0"/>
<path d="M83.6 20.9H62.7V41.8H83.6V20.9Z" fill="#00E6A0"/>
<path d="M250.8 0H229.9V20.9H250.8V0Z" fill="#00E6A0"/>
<path d="M209 0H188.1V20.9H209V0Z" fill="#00E6A0"/>
<path d="M125.4 0H104.5V20.9H125.4V0Z" fill="#00E6A0"/>
<path d="M83.6 0H62.7V20.9H83.6V0Z" fill="#00E6A0"/>
</svg>
