<svg width="500" height="500" viewBox="0 0 500 500" fill="none" xmlns="http://www.w3.org/2000/svg">
<path d="M330 362H298V394H330V362Z" fill="#0096FF"/>
<path d="M202 362H170V394H202V362Z" fill="#0096FF"/>
<path d="M298 330H266V362H298V330Z" fill="#0096FF"/>
<path d="M234 330H202V362H234V330Z" fill="#0096FF"/>
<path d="M330 298H298V330H330V298Z" fill="#0096FF"/>
<path d="M298 298H266V330H298V298Z" fill="#FF1455"/>
<path d="M266 298H234V330H266V298Z" fill="#FF1455"/>
<path d="M234 298H202V330H234V298Z" fill="#FF1455"/>
<path d="M202 298H170V330H202V298Z" fill="#0096FF"/>
<path d="M330 266H298V298H330V266Z" fill="#0096FF"/>
<path d="M298 266H266V298H298V266Z" fill="#00E6A0"/>
<path d="M234 266H202V298H234V266Z" fill="#00E6A0"/>
<path d="M202 266H170V298H202V266Z" fill="#0096FF"/>
<path d="M362 234H330V266H362V234Z" fill="#FF1455"/>
<path d="M330 234H298V266H330V234Z" fill="#0096FF"/>
<path d="M298 234H266V266H298V234Z" fill="#00E6A0"/>
<path d="M266 234H234V266H266V234Z" fill="#00E6A0"/>
<path d="M234 234H202V266H234V234Z" fill="#00E6A0"/>
<path d="M202 234H170V266H202V234Z" fill="#0096FF"/>
<path d="M170 234H138V266H170V234Z" fill="#FF1455"/>
<path d="M394 202H362V234H394V202Z" fill="#FF1455"/>
<path d="M362 202H330V234H362V202Z" fill="#FF1455"/>
<path d="M330 202H298V234H330V202Z" fill="#0096FF"/>
<path d="M266 202H234V234H266V202Z" fill="#00E6A0"/>
<path d="M202 202H170V234H202V202Z" fill="#0096FF"/>
<path d="M170 202H138V234H170V202Z" fill="#FF1455"/>
<path d="M138 202H106V234H138V202Z" fill="#FF1455"/>
<path d="M394 170H362V202H394V170Z" fill="#FF1455"/>
<path d="M330 170H298V202H330V170Z" fill="#0096FF"/>
<path d="M298 170H266V202H298V170Z" fill="#FF1455"/>
<path d="M266 170H234V202H266V170Z" fill="#FF1455"/>
<path d="M234 170H202V202H234V170Z" fill="#FF1455"/>
<path d="M202 170H170V202H202V170Z" fill="#0096FF"/>
<path d="M138 170H106V202H138V170Z" fill="#FF1455"/>
<path d="M298 138H266V170H298V138Z" fill="#0096FF"/>
<path d="M234 138H202V170H234V138Z" fill="#0096FF"/>
<path d="M330 106H298V138H330V106Z" fill="#0096FF"/>
<path d="M298 106H266V138H298V106Z" fill="#0096FF"/>
<path d="M234 106H202V138H234V106Z" fill="#0096FF"/>
<path d="M202 106H170V138H202V106Z" fill="#0096FF"/>
</svg>
