<svg width="500" height="500" viewBox="0 0 500 500" fill="none" xmlns="http://www.w3.org/2000/svg">
<path d="M397.03 303.89H387.27V313.66H397.03V303.89Z" fill="#FF121B"/>
<path d="M397.03 294.13H387.27V303.89H397.03V294.13Z" fill="#FF121B"/>
<path d="M397.03 284.24H387.27V294.13H397.03V284.24Z" fill="#FF646D"/>
<path d="M387.27 372.5H377.5V382.38H387.27V372.5Z" fill="#4C934F"/>
<path d="M387.27 362.73H377.5V372.5H387.27V362.73Z" fill="#4C934F"/>
<path d="M387.27 352.97H377.5V362.73H387.27V352.97Z" fill="#4C934F"/>
<path d="M387.27 313.66H377.5V323.55H387.27V313.66Z" fill="#FF121B"/>
<path d="M387.27 303.89H377.5V313.66H387.27V303.89Z" fill="#FF121B"/>
<path d="M387.27 294.13H377.5V303.89H387.27V294.13Z" fill="#FF121B"/>
<path d="M387.27 284.24H377.5V294.13H387.27V284.24Z" fill="#FF646D"/>
<path d="M387.27 274.47H377.5V284.24H387.27V274.47Z" fill="#92110C"/>
<path d="M387.27 264.71H377.5V274.47H387.27V264.71Z" fill="#FF121B"/>
<path d="M387.27 254.82H377.5V264.71H387.27V254.82Z" fill="#FF121B"/>
<path d="M377.5 362.73H367.61V372.5H377.5V362.73Z" fill="#2E6D36"/>
<path d="M377.5 352.97H367.61V362.73H377.5V352.97Z" fill="#4C934F"/>
<path d="M377.5 343.08H367.61V352.97H377.5V343.08Z" fill="#4C934F"/>
<path d="M377.5 333.31H367.61V343.08H377.5V333.31Z" fill="#FF121B"/>
<path d="M377.5 323.55H367.61V333.31H377.5V323.55Z" fill="#92110C"/>
<path d="M377.5 313.66H367.61V323.55H377.5V313.66Z" fill="#FF121B"/>
<path d="M377.5 303.89H367.61V313.66H377.5V303.89Z" fill="#FF121B"/>
<path d="M377.5 294.13H367.61V303.89H377.5V294.13Z" fill="#FF646D"/>
<path d="M377.5 284.24H367.61V294.13H377.5V284.24Z" fill="#92110C"/>
<path d="M377.5 274.47H367.61V284.24H377.5V274.47Z" fill="#FF121B"/>
<path d="M377.5 264.71H367.61V274.47H377.5V264.71Z" fill="#FF121B"/>
<path d="M377.5 254.82H367.61V264.71H377.5V254.82Z" fill="#FF121B"/>
<path d="M377.5 245.06H367.61V254.82H377.5V245.06Z" fill="#FF646D"/>
<path d="M367.61 362.73H357.85V372.5H367.61V362.73Z" fill="#2E6D36"/>
<path d="M367.61 352.97H357.85V362.73H367.61V352.97Z" fill="#2E6D36"/>
<path d="M367.61 343.08H357.85V352.97H367.61V343.08Z" fill="#FF121B"/>
<path d="M367.61 333.31H357.85V343.08H367.61V333.31Z" fill="#FF121B"/>
<path d="M367.61 323.55H357.85V333.31H367.61V323.55Z" fill="#FF121B"/>
<path d="M367.61 313.66H357.85V323.55H367.61V313.66Z" fill="#92110C"/>
<path d="M367.61 303.89H357.85V313.66H367.61V303.89Z" fill="#92110C"/>
<path d="M367.61 294.13H357.85V303.89H367.61V294.13Z" fill="#92110C"/>
<path d="M367.61 284.24H357.85V294.13H367.61V284.24Z" fill="#92110C"/>
<path d="M367.61 274.47H357.85V284.24H367.61V274.47Z" fill="#92110C"/>
<path d="M367.61 264.71H357.85V274.47H367.61V264.71Z" fill="#FF121B"/>
<path d="M367.61 254.82H357.85V264.71H367.61V254.82Z" fill="#FF121B"/>
<path d="M367.61 245.06H357.85V254.82H367.61V245.06Z" fill="#FF646D"/>
<path d="M357.85 352.97H348.08V362.73H357.85V352.97Z" fill="#2E6D36"/>
<path d="M357.85 343.08H348.08V352.97H357.85V343.08Z" fill="#FF121B"/>
<path d="M357.85 333.31H348.08V343.08H357.85V333.31Z" fill="#FF121B"/>
<path d="M357.85 323.55H348.08V333.31H357.85V323.55Z" fill="#FF121B"/>
<path d="M357.85 313.66H348.08V323.55H357.85V313.66Z" fill="#92110C"/>
<path d="M357.85 303.89H348.08V313.66H357.85V303.89Z" fill="#FF121B"/>
<path d="M357.85 294.13H348.08V303.89H357.85V294.13Z" fill="#92110C"/>
<path d="M357.85 284.24H348.08V294.13H357.85V284.24Z" fill="#FF121B"/>
<path d="M357.85 274.47H348.08V284.24H357.85V274.47Z" fill="#92110C"/>
<path d="M357.85 264.71H348.08V274.47H357.85V264.71Z" fill="#92110C"/>
<path d="M357.85 254.82H348.08V264.71H357.85V254.82Z" fill="#FF646D"/>
<path d="M348.08 392.15H338.2V401.92H348.08V392.15Z" fill="#4C934F"/>
<path d="M348.08 343.08H338.2V352.97H348.08V343.08Z" fill="#FF121B"/>
<path d="M348.08 333.31H338.2V343.08H348.08V333.31Z" fill="#FF121B"/>
<path d="M348.08 323.55H338.2V333.31H348.08V323.55Z" fill="#FF121B"/>
<path d="M348.08 313.66H338.2V323.55H348.08V313.66Z" fill="#92110C"/>
<path d="M348.08 303.89H338.2V313.66H348.08V303.89Z" fill="#FF121B"/>
<path d="M348.08 294.13H338.2V303.89H348.08V294.13Z" fill="#92110C"/>
<path d="M348.08 284.24H338.2V294.13H348.08V284.24Z" fill="#92110C"/>
<path d="M348.08 274.47H338.2V284.24H348.08V274.47Z" fill="#FF121B"/>
<path d="M348.08 264.71H338.2V274.47H348.08V264.71Z" fill="#FF646D"/>
<path d="M348.08 254.82H338.2V264.71H348.08V254.82Z" fill="#92110C"/>
<path d="M348.08 245.06H338.2V254.82H348.08V245.06Z" fill="#FF121B"/>
<path d="M348.08 196.11H338.2V205.87H348.08V196.11Z" fill="#4C934F"/>
<path d="M338.2 401.92H328.43V411.68H338.2V401.92Z" fill="#2E6D36"/>
<path d="M338.2 392.15H328.43V401.92H338.2V392.15Z" fill="#4C934F"/>
<path d="M338.2 343.08H328.43V352.97H338.2V343.08Z" fill="#FF121B"/>
<path d="M338.2 333.31H328.43V343.08H338.2V333.31Z" fill="#FF121B"/>
<path d="M338.2 323.55H328.43V333.31H338.2V323.55Z" fill="#FF646D"/>
<path d="M338.2 313.66H328.43V323.55H338.2V313.66Z" fill="#92110C"/>
<path d="M338.2 303.89H328.43V313.66H338.2V303.89Z" fill="#92110C"/>
<path d="M338.2 294.13H328.43V303.89H338.2V294.13Z" fill="#FF121B"/>
<path d="M338.2 284.24H328.43V294.13H338.2V284.24Z" fill="#FF121B"/>
<path d="M338.2 274.47H328.43V284.24H338.2V274.47Z" fill="#92110C"/>
<path d="M338.2 264.71H328.43V274.47H338.2V264.71Z" fill="#92110C"/>
<path d="M338.2 254.82H328.43V264.71H338.2V254.82Z" fill="#92110C"/>
<path d="M338.2 245.06H328.43V254.82H338.2V245.06Z" fill="#FF121B"/>
<path d="M338.2 235.29H328.43V245.06H338.2V235.29Z" fill="#FF646D"/>
<path d="M338.2 205.87H328.43V215.64H338.2V205.87Z" fill="#2E6D36"/>
<path d="M338.2 196.11H328.43V205.87H338.2V196.11Z" fill="#4C934F"/>
<path d="M328.43 411.68H318.66V421.57H328.43V411.68Z" fill="#2E6D36"/>
<path d="M328.43 401.92H318.66V411.68H328.43V401.92Z" fill="#2E6D36"/>
<path d="M328.43 392.15H318.66V401.92H328.43V392.15Z" fill="#4C934F"/>
<path d="M328.43 343.08H318.66V352.97H328.43V343.08Z" fill="#FF121B"/>
<path d="M328.43 333.31H318.66V343.08H328.43V333.31Z" fill="#FF121B"/>
<path d="M328.43 323.55H318.66V333.31H328.43V323.55Z" fill="#FF646D"/>
<path d="M328.43 313.66H318.66V323.55H328.43V313.66Z" fill="#92110C"/>
<path d="M328.43 303.89H318.66V313.66H328.43V303.89Z" fill="#FF121B"/>
<path d="M328.43 294.13H318.66V303.89H328.43V294.13Z" fill="#FF121B"/>
<path d="M328.43 284.24H318.66V294.13H328.43V284.24Z" fill="#FF646D"/>
<path d="M328.43 274.47H318.66V284.24H328.43V274.47Z" fill="#FF646D"/>
<path d="M328.43 264.71H318.66V274.47H328.43V264.71Z" fill="#92110C"/>
<path d="M328.43 254.82H318.66V264.71H328.43V254.82Z" fill="#FF121B"/>
<path d="M328.43 245.06H318.66V254.82H328.43V245.06Z" fill="#FF121B"/>
<path d="M328.43 235.29H318.66V245.06H328.43V235.29Z" fill="#FF646D"/>
<path d="M328.43 205.87H318.66V215.64H328.43V205.87Z" fill="#2E6D36"/>
<path d="M328.43 196.11H318.66V205.87H328.43V196.11Z" fill="#4C934F"/>
<path d="M328.43 186.22H318.66V196.11H328.43V186.22Z" fill="#4C934F"/>
<path d="M318.66 421.57H308.78V431.34H318.66V421.57Z" fill="#2E6D36"/>
<path d="M318.66 411.68H308.78V421.57H318.66V411.68Z" fill="#2E6D36"/>
<path d="M318.66 401.92H308.78V411.68H318.66V401.92Z" fill="#4C934F"/>
<path d="M318.66 392.15H308.78V401.92H318.66V392.15Z" fill="#4C934F"/>
<path d="M318.66 333.31H308.78V343.08H318.66V333.31Z" fill="#FF646D"/>
<path d="M318.66 323.55H308.78V333.31H318.66V323.55Z" fill="#92110C"/>
<path d="M318.66 313.66H308.78V323.55H318.66V313.66Z" fill="#FF121B"/>
<path d="M318.66 303.89H308.78V313.66H318.66V303.89Z" fill="#92110C"/>
<path d="M318.66 294.13H308.78V303.89H318.66V294.13Z" fill="#92110C"/>
<path d="M318.66 284.24H308.78V294.13H318.66V284.24Z" fill="#92110C"/>
<path d="M318.66 274.47H308.78V284.24H318.66V274.47Z" fill="#92110C"/>
<path d="M318.66 264.71H308.78V274.47H318.66V264.71Z" fill="#92110C"/>
<path d="M318.66 254.82H308.78V264.71H318.66V254.82Z" fill="#FF121B"/>
<path d="M318.66 245.06H308.78V254.82H318.66V245.06Z" fill="#FF646D"/>
<path d="M318.66 215.64H308.78V225.52H318.66V215.64Z" fill="#2E6D36"/>
<path d="M318.66 205.87H308.78V215.64H318.66V205.87Z" fill="#2E6D36"/>
<path d="M318.66 196.11H308.78V205.87H318.66V196.11Z" fill="#4C934F"/>
<path d="M318.66 186.22H308.78V196.11H318.66V186.22Z" fill="#4C934F"/>
<path d="M308.78 421.57H299.01V431.34H308.78V421.57Z" fill="#2E6D36"/>
<path d="M308.78 411.68H299.01V421.57H308.78V411.68Z" fill="#2E6D36"/>
<path d="M308.78 401.92H299.01V411.68H308.78V401.92Z" fill="#4C934F"/>
<path d="M308.78 323.55H299.01V333.31H308.78V323.55Z" fill="#FF121B"/>
<path d="M308.78 313.66H299.01V323.55H308.78V313.66Z" fill="#FF121B"/>
<path d="M308.78 303.89H299.01V313.66H308.78V303.89Z" fill="#FF121B"/>
<path d="M308.78 294.13H299.01V303.89H308.78V294.13Z" fill="#FF121B"/>
<path d="M308.78 284.24H299.01V294.13H308.78V284.24Z" fill="#FF121B"/>
<path d="M308.78 274.47H299.01V284.24H308.78V274.47Z" fill="#92110C"/>
<path d="M308.78 264.71H299.01V274.47H308.78V264.71Z" fill="#FF121B"/>
<path d="M308.78 254.82H299.01V264.71H308.78V254.82Z" fill="#FF121B"/>
<path d="M308.78 245.06H299.01V254.82H308.78V245.06Z" fill="#FF646D"/>
<path d="M308.78 215.64H299.01V225.52H308.78V215.64Z" fill="#2E6D36"/>
<path d="M308.78 205.87H299.01V215.64H308.78V205.87Z" fill="#4C934F"/>
<path d="M308.78 196.11H299.01V205.87H308.78V196.11Z" fill="#4C934F"/>
<path d="M308.78 39.25H299.01V49.01H308.78V39.25Z" fill="#4C934F"/>
<path d="M299.01 421.57H289.25V431.34H299.01V421.57Z" fill="#2E6D36"/>
<path d="M299.01 411.68H289.25V421.57H299.01V411.68Z" fill="#4C934F"/>
<path d="M299.01 401.92H289.25V411.68H299.01V401.92Z" fill="#4C934F"/>
<path d="M299.01 362.73H289.25V372.5H299.01V362.73Z" fill="#4C934F"/>
<path d="M299.01 352.97H289.25V362.73H299.01V352.97Z" fill="#4C934F"/>
<path d="M299.01 343.08H289.25V352.97H299.01V343.08Z" fill="#4C934F"/>
<path d="M299.01 333.31H289.25V343.08H299.01V333.31Z" fill="#4C934F"/>
<path d="M299.01 323.55H289.25V333.31H299.01V323.55Z" fill="#FF121B"/>
<path d="M299.01 313.66H289.25V323.55H299.01V313.66Z" fill="#FF121B"/>
<path d="M299.01 303.89H289.25V313.66H299.01V303.89Z" fill="#FF121B"/>
<path d="M299.01 294.13H289.25V303.89H299.01V294.13Z" fill="#FF121B"/>
<path d="M299.01 284.24H289.25V294.13H299.01V284.24Z" fill="#FF121B"/>
<path d="M299.01 274.47H289.25V284.24H299.01V274.47Z" fill="#FF646D"/>
<path d="M299.01 264.71H289.25V274.47H299.01V264.71Z" fill="#2E6D36"/>
<path d="M299.01 254.82H289.25V264.71H299.01V254.82Z" fill="#2E6D36"/>
<path d="M299.01 245.06H289.25V254.82H299.01V245.06Z" fill="#4C934F"/>
<path d="M299.01 215.64H289.25V225.52H299.01V215.64Z" fill="#2E6D36"/>
<path d="M299.01 205.87H289.25V215.64H299.01V205.87Z" fill="#4C934F"/>
<path d="M299.01 58.78H289.25V68.66H299.01V58.78Z" fill="#2E6D36"/>
<path d="M299.01 49.01H289.25V58.78H299.01V49.01Z" fill="#2E6D36"/>
<path d="M299.01 39.25H289.25V49.01H299.01V39.25Z" fill="#4C934F"/>
<path d="M289.25 421.57H279.36V431.34H289.25V421.57Z" fill="#2E6D36"/>
<path d="M289.25 411.68H279.36V421.57H289.25V411.68Z" fill="#4C934F"/>
<path d="M289.25 392.15H279.36V401.92H289.25V392.15Z" fill="#4C934F"/>
<path d="M289.25 382.38H279.36V392.15H289.25V382.38Z" fill="#4C934F"/>
<path d="M289.25 372.5H279.36V382.38H289.25V372.5Z" fill="#4C934F"/>
<path d="M289.25 313.66H279.36V323.55H289.25V313.66Z" fill="#FF121B"/>
<path d="M289.25 303.89H279.36V313.66H289.25V303.89Z" fill="#FF121B"/>
<path d="M289.25 294.13H279.36V303.89H289.25V294.13Z" fill="#FF121B"/>
<path d="M289.25 284.24H279.36V294.13H289.25V284.24Z" fill="#FF646D"/>
<path d="M289.25 274.47H279.36V284.24H289.25V274.47Z" fill="#FF646D"/>
<path d="M289.25 254.82H279.36V264.71H289.25V254.82Z" fill="#2E6D36"/>
<path d="M289.25 245.06H279.36V254.82H289.25V245.06Z" fill="#2E6D36"/>
<path d="M289.25 235.29H279.36V245.06H289.25V235.29Z" fill="#4C934F"/>
<path d="M289.25 225.52H279.36V235.29H289.25V225.52Z" fill="#4C934F"/>
<path d="M289.25 215.64H279.36V225.52H289.25V215.64Z" fill="#4C934F"/>
<path d="M289.25 205.87H279.36V215.64H289.25V205.87Z" fill="#4C934F"/>
<path d="M289.25 166.69H279.36V176.45H289.25V166.69Z" fill="#FF121B"/>
<path d="M289.25 156.8H279.36V166.69H289.25V156.8Z" fill="#FF121B"/>
<path d="M289.25 147.03H279.36V156.8H289.25V147.03Z" fill="#FF121B"/>
<path d="M289.25 137.27H279.36V147.03H289.25V137.27Z" fill="#FF121B"/>
<path d="M289.25 127.38H279.36V137.27H289.25V127.38Z" fill="#FF646D"/>
<path d="M289.25 68.66H279.36V78.43H289.25V68.66Z" fill="#2E6D36"/>
<path d="M289.25 58.78H279.36V68.66H289.25V58.78Z" fill="#2E6D36"/>
<path d="M289.25 49.01H279.36V58.78H289.25V49.01Z" fill="#4C934F"/>
<path d="M289.25 39.25H279.36V49.01H289.25V39.25Z" fill="#4C934F"/>
<path d="M279.36 411.68H269.59V421.57H279.36V411.68Z" fill="#2E6D36"/>
<path d="M279.36 401.92H269.59V411.68H279.36V401.92Z" fill="#4C934F"/>
<path d="M279.36 392.15H269.59V401.92H279.36V392.15Z" fill="#4C934F"/>
<path d="M279.36 362.73H269.59V372.5H279.36V362.73Z" fill="#2E6D36"/>
<path d="M279.36 352.97H269.59V362.73H279.36V352.97Z" fill="#4C934F"/>
<path d="M279.36 343.08H269.59V352.97H279.36V343.08Z" fill="#4C934F"/>
<path d="M279.36 303.89H269.59V313.66H279.36V303.89Z" fill="#FF121B"/>
<path d="M279.36 294.13H269.59V303.89H279.36V294.13Z" fill="#FF646D"/>
<path d="M279.36 284.24H269.59V294.13H279.36V284.24Z" fill="#FF646D"/>
<path d="M279.36 245.06H269.59V254.82H279.36V245.06Z" fill="#4C934F"/>
<path d="M279.36 205.87H269.59V215.64H279.36V205.87Z" fill="#2E6D36"/>
<path d="M279.36 196.11H269.59V205.87H279.36V196.11Z" fill="#4C934F"/>
<path d="M279.36 176.45H269.59V186.22H279.36V176.45Z" fill="#FF121B"/>
<path d="M279.36 166.69H269.59V176.45H279.36V166.69Z" fill="#FF121B"/>
<path d="M279.36 156.8H269.59V166.69H279.36V156.8Z" fill="#FF646D"/>
<path d="M279.36 147.03H269.59V156.8H279.36V147.03Z" fill="#FF646D"/>
<path d="M279.36 137.27H269.59V147.03H279.36V137.27Z" fill="#FF646D"/>
<path d="M279.36 127.38H269.59V137.27H279.36V127.38Z" fill="#FF646D"/>
<path d="M279.36 117.61H269.59V127.38H279.36V117.61Z" fill="#FF121B"/>
<path d="M279.36 107.85H269.59V117.61H279.36V107.85Z" fill="#FF121B"/>
<path d="M279.36 97.96H269.59V107.85H279.36V97.96Z" fill="#FF121B"/>
<path d="M279.36 88.2H269.59V97.96H279.36V88.2Z" fill="#FF121B"/>
<path d="M279.36 78.43H269.59V88.2H279.36V78.43Z" fill="#2E6D36"/>
<path d="M279.36 68.66H269.59V78.43H279.36V68.66Z" fill="#2E6D36"/>
<path d="M279.36 58.78H269.59V68.66H279.36V58.78Z" fill="#4C934F"/>
<path d="M279.36 49.01H269.59V58.78H279.36V49.01Z" fill="#4C934F"/>
<path d="M279.36 39.25H269.59V49.01H279.36V39.25Z" fill="#4C934F"/>
<path d="M269.59 441.1H259.83V450.99H269.59V441.1Z" fill="#4C934F"/>
<path d="M269.59 431.34H259.83V441.1H269.59V431.34Z" fill="#4C934F"/>
<path d="M269.59 421.57H259.83V431.34H269.59V421.57Z" fill="#4C934F"/>
<path d="M269.59 411.68H259.83V421.57H269.59V411.68Z" fill="#4C934F"/>
<path d="M269.59 401.92H259.83V411.68H269.59V401.92Z" fill="#4C934F"/>
<path d="M269.59 352.97H259.83V362.73H269.59V352.97Z" fill="#2E6D36"/>
<path d="M269.59 343.08H259.83V352.97H269.59V343.08Z" fill="#4C934F"/>
<path d="M269.59 333.31H259.83V343.08H269.59V333.31Z" fill="#4C934F"/>
<path d="M269.59 323.55H259.83V333.31H269.59V323.55Z" fill="#4C934F"/>
<path d="M269.59 254.82H259.83V264.71H269.59V254.82Z" fill="#2E6D36"/>
<path d="M269.59 245.06H259.83V254.82H269.59V245.06Z" fill="#2E6D36"/>
<path d="M269.59 196.11H259.83V205.87H269.59V196.11Z" fill="#2E6D36"/>
<path d="M269.59 186.22H259.83V196.11H269.59V186.22Z" fill="#FF121B"/>
<path d="M269.59 176.45H259.83V186.22H269.59V176.45Z" fill="#FF121B"/>
<path d="M269.59 166.69H259.83V176.45H269.59V166.69Z" fill="#FF646D"/>
<path d="M269.59 156.8H259.83V166.69H269.59V156.8Z" fill="#92110C"/>
<path d="M269.59 147.03H259.83V156.8H269.59V147.03Z" fill="#92110C"/>
<path d="M269.59 137.27H259.83V147.03H269.59V137.27Z" fill="#92110C"/>
<path d="M269.59 127.38H259.83V137.27H269.59V127.38Z" fill="#92110C"/>
<path d="M269.59 117.61H259.83V127.38H269.59V117.61Z" fill="#92110C"/>
<path d="M269.59 107.85H259.83V117.61H269.59V107.85Z" fill="#FF121B"/>
<path d="M269.59 97.96H259.83V107.85H269.59V97.96Z" fill="#FF121B"/>
<path d="M269.59 88.2H259.83V97.96H269.59V88.2Z" fill="#FF121B"/>
<path d="M269.59 78.43H259.83V88.2H269.59V78.43Z" fill="#FF646D"/>
<path d="M269.59 68.66H259.83V78.43H269.59V68.66Z" fill="#2E6D36"/>
<path d="M269.59 58.78H259.83V68.66H269.59V58.78Z" fill="#4C934F"/>
<path d="M269.59 49.01H259.83V58.78H269.59V49.01Z" fill="#4C934F"/>
<path d="M259.83 450.99H250.06V460.75H259.83V450.99Z" fill="#4C934F"/>
<path d="M259.83 441.1H250.06V450.99H259.83V441.1Z" fill="#4C934F"/>
<path d="M259.83 401.92H250.06V411.68H259.83V401.92Z" fill="#4C934F"/>
<path d="M259.83 392.15H250.06V401.92H259.83V392.15Z" fill="#4C934F"/>
<path d="M259.83 352.97H250.06V362.73H259.83V352.97Z" fill="#2E6D36"/>
<path d="M259.83 343.08H250.06V352.97H259.83V343.08Z" fill="#2E6D36"/>
<path d="M259.83 333.31H250.06V343.08H259.83V333.31Z" fill="#4C934F"/>
<path d="M259.83 323.55H250.06V333.31H259.83V323.55Z" fill="#4C934F"/>
<path d="M259.83 313.66H250.06V323.55H259.83V313.66Z" fill="#4C934F"/>
<path d="M259.83 264.71H250.06V274.47H259.83V264.71Z" fill="#2E6D36"/>
<path d="M259.83 254.82H250.06V264.71H259.83V254.82Z" fill="#2E6D36"/>
<path d="M259.83 245.06H250.06V254.82H259.83V245.06Z" fill="#4C934F"/>
<path d="M259.83 235.29H250.06V245.06H259.83V235.29Z" fill="#4C934F"/>
<path d="M259.83 196.11H250.06V205.87H259.83V196.11Z" fill="#FF121B"/>
<path d="M259.83 186.22H250.06V196.11H259.83V186.22Z" fill="#FF121B"/>
<path d="M259.83 176.45H250.06V186.22H259.83V176.45Z" fill="#FF121B"/>
<path d="M259.83 166.69H250.06V176.45H259.83V166.69Z" fill="#92110C"/>
<path d="M259.83 156.8H250.06V166.69H259.83V156.8Z" fill="#92110C"/>
<path d="M259.83 147.03H250.06V156.8H259.83V147.03Z" fill="#FF121B"/>
<path d="M259.83 137.27H250.06V147.03H259.83V137.27Z" fill="#FF121B"/>
<path d="M259.83 127.38H250.06V137.27H259.83V127.38Z" fill="#FF646D"/>
<path d="M259.83 117.61H250.06V127.38H259.83V117.61Z" fill="#92110C"/>
<path d="M259.83 107.85H250.06V117.61H259.83V107.85Z" fill="#92110C"/>
<path d="M259.83 97.96H250.06V107.85H259.83V97.96Z" fill="#FF121B"/>
<path d="M259.83 88.2H250.06V97.96H259.83V88.2Z" fill="#FF121B"/>
<path d="M259.83 78.43H250.06V88.2H259.83V78.43Z" fill="#FF646D"/>
<path d="M259.83 68.66H250.06V78.43H259.83V68.66Z" fill="#4C934F"/>
<path d="M259.83 58.78H250.06V68.66H259.83V58.78Z" fill="#4C934F"/>
<path d="M250.06 392.15H240.17V401.92H250.06V392.15Z" fill="#4C934F"/>
<path d="M250.06 382.38H240.17V392.15H250.06V382.38Z" fill="#4C934F"/>
<path d="M250.06 343.08H240.17V352.97H250.06V343.08Z" fill="#2E6D36"/>
<path d="M250.06 333.31H240.17V343.08H250.06V333.31Z" fill="#2E6D36"/>
<path d="M250.06 323.55H240.17V333.31H250.06V323.55Z" fill="#4C934F"/>
<path d="M250.06 313.66H240.17V323.55H250.06V313.66Z" fill="#4C934F"/>
<path d="M250.06 303.89H240.17V313.66H250.06V303.89Z" fill="#4C934F"/>
<path d="M250.06 264.71H240.17V274.47H250.06V264.71Z" fill="#2E6D36"/>
<path d="M250.06 254.82H240.17V264.71H250.06V254.82Z" fill="#2E6D36"/>
<path d="M250.06 245.06H240.17V254.82H250.06V245.06Z" fill="#4C934F"/>
<path d="M250.06 235.29H240.17V245.06H250.06V235.29Z" fill="#4C934F"/>
<path d="M250.06 196.11H240.17V205.87H250.06V196.11Z" fill="#FF121B"/>
<path d="M250.06 186.22H240.17V196.11H250.06V186.22Z" fill="#FF646D"/>
<path d="M250.06 176.45H240.17V186.22H250.06V176.45Z" fill="#92110C"/>
<path d="M250.06 166.69H240.17V176.45H250.06V166.69Z" fill="#92110C"/>
<path d="M250.06 156.8H240.17V166.69H250.06V156.8Z" fill="#FF121B"/>
<path d="M250.06 147.03H240.17V156.8H250.06V147.03Z" fill="#FF121B"/>
<path d="M250.06 137.27H240.17V147.03H250.06V137.27Z" fill="#FF646D"/>
<path d="M250.06 127.38H240.17V137.27H250.06V127.38Z" fill="#FF646D"/>
<path d="M250.06 117.61H240.17V127.38H250.06V117.61Z" fill="#92110C"/>
<path d="M250.06 107.85H240.17V117.61H250.06V107.85Z" fill="#92110C"/>
<path d="M250.06 97.96H240.17V107.85H250.06V97.96Z" fill="#92110C"/>
<path d="M250.06 88.2H240.17V97.96H250.06V88.2Z" fill="#FF121B"/>
<path d="M250.06 78.43H240.17V88.2H250.06V78.43Z" fill="#FF646D"/>
<path d="M240.17 372.5H230.41V382.38H240.17V372.5Z" fill="#4C934F"/>
<path d="M240.17 362.73H230.41V372.5H240.17V362.73Z" fill="#4C934F"/>
<path d="M240.17 333.31H230.41V343.08H240.17V333.31Z" fill="#2E6D36"/>
<path d="M240.17 323.55H230.41V333.31H240.17V323.55Z" fill="#2E6D36"/>
<path d="M240.17 313.66H230.41V323.55H240.17V313.66Z" fill="#2E6D36"/>
<path d="M240.17 303.89H230.41V313.66H240.17V303.89Z" fill="#2E6D36"/>
<path d="M240.17 294.13H230.41V303.89H240.17V294.13Z" fill="#4C934F"/>
<path d="M240.17 264.71H230.41V274.47H240.17V264.71Z" fill="#2E6D36"/>
<path d="M240.17 254.82H230.41V264.71H240.17V254.82Z" fill="#2E6D36"/>
<path d="M240.17 245.06H230.41V254.82H240.17V245.06Z" fill="#4C934F"/>
<path d="M240.17 235.29H230.41V245.06H240.17V235.29Z" fill="#4C934F"/>
<path d="M240.17 205.87H230.41V215.64H240.17V205.87Z" fill="#FF121B"/>
<path d="M240.17 196.11H230.41V205.87H240.17V196.11Z" fill="#FF121B"/>
<path d="M240.17 186.22H230.41V196.11H240.17V186.22Z" fill="#FF646D"/>
<path d="M240.17 176.45H230.41V186.22H240.17V176.45Z" fill="#92110C"/>
<path d="M240.17 166.69H230.41V176.45H240.17V166.69Z" fill="#FF121B"/>
<path d="M240.17 156.8H230.41V166.69H240.17V156.8Z" fill="#FF646D"/>
<path d="M240.17 147.03H230.41V156.8H240.17V147.03Z" fill="#92110C"/>
<path d="M240.17 137.27H230.41V147.03H240.17V137.27Z" fill="#92110C"/>
<path d="M240.17 127.38H230.41V137.27H240.17V127.38Z" fill="#92110C"/>
<path d="M240.17 117.61H230.41V127.38H240.17V117.61Z" fill="#FF121B"/>
<path d="M240.17 107.85H230.41V117.61H240.17V107.85Z" fill="#FF121B"/>
<path d="M240.17 97.96H230.41V107.85H240.17V97.96Z" fill="#92110C"/>
<path d="M240.17 88.2H230.41V97.96H240.17V88.2Z" fill="#92110C"/>
<path d="M240.17 78.43H230.41V88.2H240.17V78.43Z" fill="#FF646D"/>
<path d="M230.41 362.73H220.64V372.5H230.41V362.73Z" fill="#4C934F"/>
<path d="M230.41 352.97H220.64V362.73H230.41V352.97Z" fill="#4C934F"/>
<path d="M230.41 264.71H220.64V274.47H230.41V264.71Z" fill="#2E6D36"/>
<path d="M230.41 254.82H220.64V264.71H230.41V254.82Z" fill="#4C934F"/>
<path d="M230.41 245.06H220.64V254.82H230.41V245.06Z" fill="#4C934F"/>
<path d="M230.41 235.29H220.64V245.06H230.41V235.29Z" fill="#4C934F"/>
<path d="M230.41 205.87H220.64V215.64H230.41V205.87Z" fill="#FF121B"/>
<path d="M230.41 196.11H220.64V205.87H230.41V196.11Z" fill="#FF121B"/>
<path d="M230.41 186.22H220.64V196.11H230.41V186.22Z" fill="#92110C"/>
<path d="M230.41 176.45H220.64V186.22H230.41V176.45Z" fill="#92110C"/>
<path d="M230.41 166.69H220.64V176.45H230.41V166.69Z" fill="#FF121B"/>
<path d="M230.41 156.8H220.64V166.69H230.41V156.8Z" fill="#92110C"/>
<path d="M230.41 147.03H220.64V156.8H230.41V147.03Z" fill="#92110C"/>
<path d="M230.41 137.27H220.64V147.03H230.41V137.27Z" fill="#FF121B"/>
<path d="M230.41 127.38H220.64V137.27H230.41V127.38Z" fill="#FF121B"/>
<path d="M230.41 117.61H220.64V127.38H230.41V117.61Z" fill="#92110C"/>
<path d="M230.41 107.85H220.64V117.61H230.41V107.85Z" fill="#FF121B"/>
<path d="M230.41 97.96H220.64V107.85H230.41V97.96Z" fill="#FF121B"/>
<path d="M230.41 88.2H220.64V97.96H230.41V88.2Z" fill="#92110C"/>
<path d="M230.41 78.43H220.64V88.2H230.41V78.43Z" fill="#FF646D"/>
<path d="M220.64 352.97H210.75V362.73H220.64V352.97Z" fill="#2E6D36"/>
<path d="M220.64 343.08H210.75V352.97H220.64V343.08Z" fill="#4C934F"/>
<path d="M220.64 333.31H210.75V343.08H220.64V333.31Z" fill="#FF121B"/>
<path d="M220.64 264.71H210.75V274.47H220.64V264.71Z" fill="#2E6D36"/>
<path d="M220.64 254.82H210.75V264.71H220.64V254.82Z" fill="#4C934F"/>
<path d="M220.64 245.06H210.75V254.82H220.64V245.06Z" fill="#4C934F"/>
<path d="M220.64 205.87H210.75V215.64H220.64V205.87Z" fill="#FF121B"/>
<path d="M220.64 196.11H210.75V205.87H220.64V196.11Z" fill="#FF646D"/>
<path d="M220.64 186.22H210.75V196.11H220.64V186.22Z" fill="#92110C"/>
<path d="M220.64 176.45H210.75V186.22H220.64V176.45Z" fill="#FF121B"/>
<path d="M220.64 166.69H210.75V176.45H220.64V166.69Z" fill="#FF121B"/>
<path d="M220.64 156.8H210.75V166.69H220.64V156.8Z" fill="#92110C"/>
<path d="M220.64 147.03H210.75V156.8H220.64V147.03Z" fill="#FF121B"/>
<path d="M220.64 137.27H210.75V147.03H220.64V137.27Z" fill="#FF121B"/>
<path d="M220.64 127.38H210.75V137.27H220.64V127.38Z" fill="#92110C"/>
<path d="M220.64 117.61H210.75V127.38H220.64V117.61Z" fill="#92110C"/>
<path d="M220.64 107.85H210.75V117.61H220.64V107.85Z" fill="#FF121B"/>
<path d="M220.64 97.96H210.75V107.85H220.64V97.96Z" fill="#92110C"/>
<path d="M220.64 88.2H210.75V97.96H220.64V88.2Z" fill="#FF121B"/>
<path d="M210.75 352.97H200.99V362.73H210.75V352.97Z" fill="#2E6D36"/>
<path d="M210.75 343.08H200.99V352.97H210.75V343.08Z" fill="#FF121B"/>
<path d="M210.75 333.31H200.99V343.08H210.75V333.31Z" fill="#FF121B"/>
<path d="M210.75 323.55H200.99V333.31H210.75V323.55Z" fill="#FF646D"/>
<path d="M210.75 313.66H200.99V323.55H210.75V313.66Z" fill="#FF646D"/>
<path d="M210.75 264.71H200.99V274.47H210.75V264.71Z" fill="#4C934F"/>
<path d="M210.75 254.82H200.99V264.71H210.75V254.82Z" fill="#4C934F"/>
<path d="M210.75 205.87H200.99V215.64H210.75V205.87Z" fill="#FF646D"/>
<path d="M210.75 196.11H200.99V205.87H210.75V196.11Z" fill="#92110C"/>
<path d="M210.75 186.22H200.99V196.11H210.75V186.22Z" fill="#92110C"/>
<path d="M210.75 176.45H200.99V186.22H210.75V176.45Z" fill="#FF121B"/>
<path d="M210.75 166.69H200.99V176.45H210.75V166.69Z" fill="#FF646D"/>
<path d="M210.75 156.8H200.99V166.69H210.75V156.8Z" fill="#92110C"/>
<path d="M210.75 147.03H200.99V156.8H210.75V147.03Z" fill="#92110C"/>
<path d="M210.75 137.27H200.99V147.03H210.75V137.27Z" fill="#92110C"/>
<path d="M210.75 127.38H200.99V137.27H210.75V127.38Z" fill="#92110C"/>
<path d="M210.75 117.61H200.99V127.38H210.75V117.61Z" fill="#FF121B"/>
<path d="M210.75 107.85H200.99V117.61H210.75V107.85Z" fill="#FF646D"/>
<path d="M210.75 97.96H200.99V107.85H210.75V97.96Z" fill="#92110C"/>
<path d="M210.75 88.2H200.99V97.96H210.75V88.2Z" fill="#FF121B"/>
<path d="M210.75 78.43H200.99V88.2H210.75V78.43Z" fill="#FF121B"/>
<path d="M200.99 343.08H191.22V352.97H200.99V343.08Z" fill="#FF121B"/>
<path d="M200.99 333.31H191.22V343.08H200.99V333.31Z" fill="#FF121B"/>
<path d="M200.99 323.55H191.22V333.31H200.99V323.55Z" fill="#FF121B"/>
<path d="M200.99 313.66H191.22V323.55H200.99V313.66Z" fill="#FF121B"/>
<path d="M200.99 303.89H191.22V313.66H200.99V303.89Z" fill="#FF646D"/>
<path d="M200.99 264.71H191.22V274.47H200.99V264.71Z" fill="#4C934F"/>
<path d="M200.99 196.11H191.22V205.87H200.99V196.11Z" fill="#FF121B"/>
<path d="M200.99 186.22H191.22V196.11H200.99V186.22Z" fill="#92110C"/>
<path d="M200.99 176.45H191.22V186.22H200.99V176.45Z" fill="#92110C"/>
<path d="M200.99 166.69H191.22V176.45H200.99V166.69Z" fill="#FF646D"/>
<path d="M200.99 156.8H191.22V166.69H200.99V156.8Z" fill="#92110C"/>
<path d="M200.99 147.03H191.22V156.8H200.99V147.03Z" fill="#FF121B"/>
<path d="M200.99 137.27H191.22V147.03H200.99V137.27Z" fill="#FF121B"/>
<path d="M200.99 127.38H191.22V137.27H200.99V127.38Z" fill="#92110C"/>
<path d="M200.99 117.61H191.22V127.38H200.99V117.61Z" fill="#FF646D"/>
<path d="M200.99 107.85H191.22V117.61H200.99V107.85Z" fill="#92110C"/>
<path d="M200.99 97.96H191.22V107.85H200.99V97.96Z" fill="#92110C"/>
<path d="M200.99 88.2H191.22V97.96H200.99V88.2Z" fill="#FF121B"/>
<path d="M200.99 78.43H191.22V88.2H200.99V78.43Z" fill="#FF646D"/>
<path d="M191.22 333.31H181.33V343.08H191.22V333.31Z" fill="#FF121B"/>
<path d="M191.22 323.55H181.33V333.31H191.22V323.55Z" fill="#FF121B"/>
<path d="M191.22 313.66H181.33V323.55H191.22V313.66Z" fill="#FF121B"/>
<path d="M191.22 303.89H181.33V313.66H191.22V303.89Z" fill="#FF646D"/>
<path d="M191.22 196.11H181.33V205.87H191.22V196.11Z" fill="#FF121B"/>
<path d="M191.22 186.22H181.33V196.11H191.22V186.22Z" fill="#FF121B"/>
<path d="M191.22 176.45H181.33V186.22H191.22V176.45Z" fill="#92110C"/>
<path d="M191.22 166.69H181.33V176.45H191.22V166.69Z" fill="#92110C"/>
<path d="M191.22 156.8H181.33V166.69H191.22V156.8Z" fill="#92110C"/>
<path d="M191.22 147.03H181.33V156.8H191.22V147.03Z" fill="#FF121B"/>
<path d="M191.22 137.27H181.33V147.03H191.22V137.27Z" fill="#FF646D"/>
<path d="M191.22 127.38H181.33V137.27H191.22V127.38Z" fill="#FF646D"/>
<path d="M191.22 117.61H181.33V127.38H191.22V117.61Z" fill="#92110C"/>
<path d="M191.22 107.85H181.33V117.61H191.22V107.85Z" fill="#92110C"/>
<path d="M191.22 97.96H181.33V107.85H191.22V97.96Z" fill="#FF121B"/>
<path d="M191.22 88.2H181.33V97.96H191.22V88.2Z" fill="#FF121B"/>
<path d="M191.22 78.43H181.33V88.2H191.22V78.43Z" fill="#FF646D"/>
<path d="M191.22 68.66H181.33V78.43H191.22V68.66Z" fill="#4C934F"/>
<path d="M181.33 323.55H171.57V333.31H181.33V323.55Z" fill="#FF121B"/>
<path d="M181.33 313.66H171.57V323.55H181.33V313.66Z" fill="#FF121B"/>
<path d="M181.33 196.11H171.57V205.87H181.33V196.11Z" fill="#FF121B"/>
<path d="M181.33 186.22H171.57V196.11H181.33V186.22Z" fill="#FF121B"/>
<path d="M181.33 176.45H171.57V186.22H181.33V176.45Z" fill="#FF121B"/>
<path d="M181.33 166.69H171.57V176.45H181.33V166.69Z" fill="#FF121B"/>
<path d="M181.33 156.8H171.57V166.69H181.33V156.8Z" fill="#92110C"/>
<path d="M181.33 147.03H171.57V156.8H181.33V147.03Z" fill="#92110C"/>
<path d="M181.33 137.27H171.57V147.03H181.33V137.27Z" fill="#92110C"/>
<path d="M181.33 127.38H171.57V137.27H181.33V127.38Z" fill="#92110C"/>
<path d="M181.33 117.61H171.57V127.38H181.33V117.61Z" fill="#FF121B"/>
<path d="M181.33 107.85H171.57V117.61H181.33V107.85Z" fill="#FF121B"/>
<path d="M181.33 97.96H171.57V107.85H181.33V97.96Z" fill="#FF121B"/>
<path d="M181.33 88.2H171.57V97.96H181.33V88.2Z" fill="#FF646D"/>
<path d="M181.33 78.43H171.57V88.2H181.33V78.43Z" fill="#FF646D"/>
<path d="M181.33 68.66H171.57V78.43H181.33V68.66Z" fill="#4C934F"/>
<path d="M171.57 196.11H161.8V205.87H171.57V196.11Z" fill="#FF121B"/>
<path d="M171.57 186.22H161.8V196.11H171.57V186.22Z" fill="#FF121B"/>
<path d="M171.57 176.45H161.8V186.22H171.57V176.45Z" fill="#FF121B"/>
<path d="M171.57 166.69H161.8V176.45H171.57V166.69Z" fill="#FF121B"/>
<path d="M171.57 156.8H161.8V166.69H171.57V156.8Z" fill="#FF121B"/>
<path d="M171.57 147.03H161.8V156.8H171.57V147.03Z" fill="#FF121B"/>
<path d="M171.57 137.27H161.8V147.03H171.57V137.27Z" fill="#FF646D"/>
<path d="M171.57 107.85H161.8V117.61H171.57V107.85Z" fill="#FF121B"/>
<path d="M171.57 97.96H161.8V107.85H171.57V97.96Z" fill="#FF121B"/>
<path d="M171.57 88.2H161.8V97.96H171.57V88.2Z" fill="#FF646D"/>
<path d="M171.57 78.43H161.8V88.2H171.57V78.43Z" fill="#2E6D36"/>
<path d="M171.57 68.66H161.8V78.43H171.57V68.66Z" fill="#4C934F"/>
<path d="M171.57 58.78H161.8V68.66H171.57V58.78Z" fill="#4C934F"/>
<path d="M161.8 186.22H151.92V196.11H161.8V186.22Z" fill="#FF121B"/>
<path d="M161.8 176.45H151.92V186.22H161.8V176.45Z" fill="#FF121B"/>
<path d="M161.8 166.69H151.92V176.45H161.8V166.69Z" fill="#FF646D"/>
<path d="M161.8 156.8H151.92V166.69H161.8V156.8Z" fill="#FF646D"/>
<path d="M161.8 147.03H151.92V156.8H161.8V147.03Z" fill="#FF646D"/>
<path d="M161.8 137.27H151.92V147.03H161.8V137.27Z" fill="#FF646D"/>
<path d="M161.8 88.2H151.92V97.96H161.8V88.2Z" fill="#2E6D36"/>
<path d="M161.8 78.43H151.92V88.2H161.8V78.43Z" fill="#2E6D36"/>
<path d="M161.8 68.66H151.92V78.43H161.8V68.66Z" fill="#4C934F"/>
<path d="M161.8 58.78H151.92V68.66H161.8V58.78Z" fill="#4C934F"/>
<path d="M151.92 186.22H142.15V196.11H151.92V186.22Z" fill="#2E6D36"/>
<path d="M151.92 176.45H142.15V186.22H151.92V176.45Z" fill="#2E6D36"/>
<path d="M151.92 166.69H142.15V176.45H151.92V166.69Z" fill="#4C934F"/>
<path d="M151.92 68.66H142.15V78.43H151.92V68.66Z" fill="#2E6D36"/>
<path d="M151.92 58.78H142.15V68.66H151.92V58.78Z" fill="#4C934F"/>
<path d="M142.15 186.22H132.38V196.11H142.15V186.22Z" fill="#2E6D36"/>
<path d="M142.15 176.45H132.38V186.22H142.15V176.45Z" fill="#4C934F"/>
<path d="M142.15 166.69H132.38V176.45H142.15V166.69Z" fill="#4C934F"/>
<path d="M142.15 58.78H132.38V68.66H142.15V58.78Z" fill="#4C934F"/>
<path d="M132.38 196.11H122.5V205.87H132.38V196.11Z" fill="#2E6D36"/>
<path d="M132.38 186.22H122.5V196.11H132.38V186.22Z" fill="#4C934F"/>
<path d="M132.38 176.45H122.5V186.22H132.38V176.45Z" fill="#4C934F"/>
<path d="M132.38 166.69H122.5V176.45H132.38V166.69Z" fill="#4C934F"/>
<path d="M122.5 196.11H112.73V205.87H122.5V196.11Z" fill="#2E6D36"/>
<path d="M122.5 186.22H112.73V196.11H122.5V186.22Z" fill="#4C934F"/>
<path d="M122.5 176.45H112.73V186.22H122.5V176.45Z" fill="#4C934F"/>
<path d="M112.73 205.87H102.97V215.64H112.73V205.87Z" fill="#4C934F"/>
<path d="M112.73 196.11H102.97V205.87H112.73V196.11Z" fill="#4C934F"/>
<path d="M112.73 186.22H102.97V196.11H112.73V186.22Z" fill="#4C934F"/>
</svg>
